<svg xmlns="http://www.w3.org/2000/svg" viewBox="0 0 104 104"><defs><style>.cls-1{fill:#2796e7;stroke-width:4px;}.cls-1,.cls-4,.cls-5,.cls-6{stroke:#fff;stroke-miterlimit:10;}.cls-2{fill:#fff;}.cls-3{opacity:0.53;}.cls-4,.cls-5,.cls-6{fill:none;}.cls-5{stroke-dasharray:2.03 2.03;}.cls-6{stroke-dasharray:2.03 2.03;}</style></defs><title>Asset 6</title><g id="Layer_2" data-name="Layer 2"><g id="Layer_1-2" data-name="Layer 1"><rect class="cls-1" x="2" y="2" width="100" height="100" rx="5.85" ry="5.85"/><path class="cls-2" d="M52.24,51.51v50.27L3,100.76,2,51.51H52.24M40.79,68.9a14.71,14.71,0,0,0-4.56-5.23,15.81,15.81,0,0,0-9-2.88A15.16,15.16,0,0,0,12,76,15.41,15.41,0,0,0,27.16,91.47,15.26,15.26,0,0,0,40.59,83.6H35.27a10.73,10.73,0,0,1-8.07,3.91c-6.15,0-10.9-5.47-10.9-11.46a11.09,11.09,0,0,1,11-11.3,10.57,10.57,0,0,1,8.31,4.15Z"/><path class="cls-2" d="M76.4,92.54A9.28,9.28,0,0,1,67,83.41h4.09c.16,3.18,2.25,5.39,5.43,5.39a5.33,5.33,0,0,0,5.24-5.35,5.23,5.23,0,0,0-5.43-5.24h-1.5V74.12h1.42a4,4,0,1,0,.35-8.07c-2.44,0-3.66,1.81-3.89,4.1H68.6a7.73,7.73,0,0,1,5.16-7.28,9.38,9.38,0,0,1,2.95-.55,7.69,7.69,0,0,1,7.87,8.06,6.74,6.74,0,0,1-2.67,5.67,8.43,8.43,0,0,1,3.93,7.24C85.84,88.8,81.83,92.54,76.4,92.54Z"/><g class="cls-3"><line class="cls-4" x1="100.63" y1="52" x2="99.63" y2="52"/><line class="cls-5" x1="97.6" y1="51.99" x2="54.04" y2="51.86"/><polyline class="cls-4" points="53.02 51.85 52.02 51.85 52.02 50.85"/><line class="cls-6" x1="52.02" y1="48.82" x2="52.02" y2="5.21"/><line class="cls-4" x1="52.02" y1="4.2" x2="52.02" y2="3.2"/></g></g></g></svg>