<?xml version="1.0" encoding="utf-8"?>
<!-- Generator: Adobe Illustrator 22.1.0, SVG Export Plug-In . SVG Version: 6.00 Build 0)  -->
<svg version="1.1" id="Layer_1" xmlns="http://www.w3.org/2000/svg" xmlns:xlink="http://www.w3.org/1999/xlink" x="0px" y="0px"
	 viewBox="0 0 902.7 1026.2" style="enable-background:new 0 0 902.7 1026.2;" xml:space="preserve">
<style type="text/css">
	.st0{fill:#122E30;}
	.st1{fill:none;}
	.st2{fill:#48ACB7;}
	.st3{fill:#50C0CC;}
	.st4{fill:#3B99A3;}
</style>
<rect x="-79" y="-17.2" class="st0" width="1060.6" height="1060.6"/>
<rect x="-71.2" y="-12.3" class="st1" width="1050.9" height="1050.9"/>
<g>
	<polygon class="st2" points="902.7,253.8 451.6,0 0,261 451.3,524.4 	"/>
	<polygon class="st3" points="451.3,524.4 451.3,1026.2 902.7,758.3 902.7,253.8 	"/>
	<polygon class="st4" points="451.3,524.4 451.3,1026.2 0,758.3 0,261 	"/>
	<polygon class="st0" points="797.8,316.7 451.6,121.5 451.1,319.2 627.5,419.5 	"/>
	<polygon class="st0" points="629.8,618.8 802.2,718 451.3,930.4 108.2,725.7 272.9,618.8 451.3,723.1 	"/>
	<polygon class="st0" points="272.9,618.8 108.2,725.7 108.2,324.2 451.6,121.5 451.1,319.2 272.9,420.2 	"/>
	<g>
		<path class="st0" d="M798.5,459.5h-117v-43.9h160.9v204.8h-43.9V459.5L798.5,459.5z M802.2,496v43.9H681.5V496H802.2z
			 M802.2,576.5v43.9H681.5v-43.9H802.2z"/>
	</g>
</g>
</svg>
